<svg id="Layer_1" data-name="Layer 1" xmlns="http://www.w3.org/2000/svg" viewBox="0 0 60 60"><defs><style>.cls-1{fill:#5f5f5f;}.cls-2{fill:#484848;}.cls-3{fill:#212121;}.cls-4{fill:#303030;}.cls-5{fill:#393939;}</style></defs><title>Artboard 1</title><path class="cls-1" d="M53.47,27.88c-.63,2.71-.4,20.23-2.54,19.37L36.49,41.47c-2.14-.86-3.37-3.77-2.75-6.49L42,8c.62-2.71,2-7.81,3.78-3.12"/><path class="cls-2" d="M55.9,40.91,44.58,49.52C43.11,50.65,41.2,50,40.35,48l-1.79-4.1a4.84,4.84,0,0,1,1.13-5.57L51,29.74c1.48-1.12,3.38-.45,4.23,1.49L57,35.34A4.85,4.85,0,0,1,55.9,40.91Z"/><path class="cls-2" d="M30.31,40.78H18.62c-2.07,0-3.76-2.23-3.76-5l2.31-9.34c-4-9.5.26-7.67,2.85-6.8L29.45,8C31.52,8,45.1,1,45.1,3.73l-11,32.09C34.07,38.55,32.38,40.78,30.31,40.78Z"/><path class="cls-2" d="M54.63,52.05,47.92,56c-3.61,2.11-7.87-.06-9.47-4.82l-.34-1c-1.6-4.76,0-10.38,3.65-12.49l5.3-5.31c1.72-1,4.75-5.21,6.41-4.46,1.82.83,4.56,8,5.39,10.48h0C59.44,40.88,58.25,49.94,54.63,52.05Z"/><path class="cls-3" d="M46.35,56.49l-27.88,0c-2.08.17-8.8-4-11.86-7.69L2.05,30.93c-.14-3,2-1.68,4.1-1.85l17.6,1.42c2.08-.17,6.86,4.92,7,8L41.7,48.9C42.82,51.38,48.43,56.32,46.35,56.49Z"/><path class="cls-4" d="M22.71,46.17,8.12,37c-.7,0,3.35-4.14,3.74-6.33.32-1.78-4.8,4.45-4.8,4L2.37,30.92C-.45,27.2,13.67,16,17,19.21l5.52,5.86c-.36,2.11,1.09,2.47,1.09,5.2v7.89C23.6,40.89,25,49.53,22.71,46.17Z"/><polygon class="cls-5" points="42.26 50.39 23.57 46.87 22.15 24.84 34.61 37.5 47.06 32.34 42.26 50.39"/></svg>
