<svg xmlns="http://www.w3.org/2000/svg" viewBox="0 0 200 200"><defs><style>.cls-1{fill:#d82a36;}.cls-1,.cls-2{stroke:#a30d0d;stroke-miterlimit:10;}.cls-2{fill:#93292d;}</style></defs><title>NewGame</title><g id="newGame"><ellipse class="cls-1" cx="100" cy="105" rx="88.5" ry="86.5"/><ellipse class="cls-2" cx="100.5" cy="104.5" rx="81" ry="76"/><path d="M79.3,109.93a1.94,1.94,0,0,1-.54,1.41,1.88,1.88,0,0,1-1.4.54H70.44a2,2,0,0,1-1.42-.54,1.91,1.91,0,0,1-.55-1.41v-7h2.44v6.77h5.94v-6.56L69.26,94a3.19,3.19,0,0,1-.79-2.09V86.32a1.87,1.87,0,0,1,.55-1.4,1.91,1.91,0,0,1,1.42-.55h6.92a1.85,1.85,0,0,1,1.4.55,1.9,1.9,0,0,1,.54,1.4v6.4H76.85V86.53H70.91v5.8l7.63,9.18a3.13,3.13,0,0,1,.76,2.06Z"/><path d="M93.1,86.53H88.84v25.35H86.4V86.53H82.11V84.37h11Z"/><path d="M107.05,111.88h-2.42l-1-6.12H98.19l-1,6.12H94.87v-.07L99.78,84.3h2.4Zm-3.71-8.28-2.4-14.9-2.43,14.9Z"/><path d="M122.07,111.88H119.5l-5.12-14.73.34-.49h4.36V86.53H112.8v25.35h-2.44V84.37h9.21a1.87,1.87,0,0,1,2,1.95V96.76c0,1.33-.89,2-2.67,2l-.77,0-.74,0Q119.71,105.27,122.07,111.88Z"/><path d="M135.2,86.53h-4.26v25.35H128.5V86.53h-4.29V84.37h11Z"/><ellipse cx="100.53" cy="106" rx="73.45" ry="73"/><ellipse class="cls-1" cx="100.5" cy="106" rx="68" ry="68.5"/><path d="M89.5,89.55H87.25l-9.79-27v27H74.39V52.87h2.43l9.61,26.51V52.87H89.5Z"/><path d="M107.74,86.9a2.33,2.33,0,0,1-2.63,2.65h-7.5A2.33,2.33,0,0,1,95,86.9V69.4a2.33,2.33,0,0,1,2.62-2.65h7.5a2.33,2.33,0,0,1,2.63,2.65v8.2l-1.06,1.1H98V87h6.7V82.78h3Zm-3-10.68V69.35H98v6.87Z"/><path d="M133.29,66.75,128.57,89.6h-2.78l-3.36-17.32L119.08,89.6h-2.74l-4.71-22.85h2.93l3.21,17.58,3.33-17.58h2.72l3.32,17.58,3.22-17.58Z"/><path d="M79.77,141.4a2.5,2.5,0,0,1-2.61,2.6H67.53a2.5,2.5,0,0,1-2.6-2.6V109.92a2.5,2.5,0,0,1,2.6-2.6h9.63a2.5,2.5,0,0,1,2.61,2.6v8.53H76.48V110.2H68.19v30.92h8.29V128.44H72.57v-2.81h7.2Z"/><path d="M98.09,144H95v-.63l-3.7.49a31.23,31.23,0,0,1-3.68.28,2.24,2.24,0,0,1-2.55-2.53v-8.32a2.33,2.33,0,0,1,2.64-2.63h7.34V123.8h-6.7v3.89h-3v-3.85A2.33,2.33,0,0,1,88,121.2h7.5a2.32,2.32,0,0,1,2.62,2.64Zm-3-2.84V133.1h-7v8.2Z"/><path d="M126.13,144H123V124l-6.8.19V144h-3.09V124l-6.8.19V144H103.2V121.2h3.12v.63l3.66-.49a30.1,30.1,0,0,1,3.68-.29,2.52,2.52,0,0,1,2.11.87c1.31-.17,2.61-.35,3.91-.54a32.78,32.78,0,0,1,3.87-.33,2.27,2.27,0,0,1,2.58,2.56Z"/><path d="M143.94,141.35a2.33,2.33,0,0,1-2.63,2.65h-7.5a2.33,2.33,0,0,1-2.62-2.65V123.84a2.32,2.32,0,0,1,2.62-2.64h7.5a2.33,2.33,0,0,1,2.63,2.64v8.21l-1.06,1.1h-8.67v8.25h6.7v-4.17h3Zm-3-10.69V123.8h-6.7v6.86Z"/></g></svg>
