<svg xmlns="http://www.w3.org/2000/svg" viewBox="0 0 185 185"><defs><style>.cls-1{fill:#d82a36;}.cls-1,.cls-2{stroke:#a30d0d;stroke-miterlimit:10;}.cls-2{fill:#93292d;}</style></defs><title>Again</title><g id="Start"><ellipse class="cls-1" cx="92.5" cy="93.5" rx="88.5" ry="86.5"/><ellipse class="cls-2" cx="93" cy="93" rx="81" ry="76"/><path d="M71.8,98.43a1.94,1.94,0,0,1-.54,1.41,1.88,1.88,0,0,1-1.4.54H62.94a2,2,0,0,1-1.42-.54A1.91,1.91,0,0,1,61,98.43v-7h2.44v6.77h5.94V91.66l-7.59-9.17A3.19,3.19,0,0,1,61,80.4V74.82a1.87,1.87,0,0,1,.55-1.4,1.91,1.91,0,0,1,1.42-.55h6.92a1.85,1.85,0,0,1,1.4.55,1.9,1.9,0,0,1,.54,1.4v6.4H69.35V75H63.41v5.8L71,90a3.13,3.13,0,0,1,.76,2.06Z"/><path d="M85.6,75H81.34v25.35H78.9V75H74.61V72.87h11Z"/><path d="M99.55,100.38H97.13l-1-6.12H90.69l-1,6.12H87.37v-.07L92.28,72.8h2.4ZM95.84,92.1l-2.4-14.9L91,92.1Z"/><path d="M114.57,100.38H112l-5.12-14.73.34-.49h4.36V75H105.3v25.35h-2.44V72.87h9.21a1.87,1.87,0,0,1,2,1.95V85.26c0,1.33-.89,2-2.67,2l-.77,0-.74,0Q112.21,93.77,114.57,100.38Z"/><path d="M127.7,75h-4.26v25.35H121V75h-4.29V72.87h11Z"/><ellipse cx="93.03" cy="94.5" rx="73.45" ry="73"/><ellipse class="cls-1" cx="93" cy="94.5" rx="68" ry="68.5"/><path d="M81.42,60.87a2.53,2.53,0,0,1-2.63,2.63H70.14V78.05H66.89V41.37h11.9a2.59,2.59,0,0,1,1.89.73A2.52,2.52,0,0,1,81.42,44Zm-3.26-.28V44.26h-8V60.59Z"/><path d="M89.46,78.05H86.39V41.37h3.07Z"/><path d="M107.64,78.05h-3.07v-.63c-1.23.17-2.46.34-3.7.49a31.23,31.23,0,0,1-3.68.28,2.24,2.24,0,0,1-2.55-2.53V67.34a2.33,2.33,0,0,1,2.65-2.62h7.33V57.85h-6.7v3.89h-3V57.9a2.33,2.33,0,0,1,2.63-2.65H105a2.33,2.33,0,0,1,2.62,2.65Zm-3-2.83V67.15h-7v8.21Z"/><path d="M125.6,55.25l-5.49,22.62-2.27,8.83h-3.07l2.3-8.83-5.63-22.62h3.21l3.89,18,3.94-18Z"/><path d="M72.22,132.5H69l-1.28-8.16H60.41l-1.29,8.16H56v-.09l6.54-36.68h3.21Zm-5-11-3.21-19.87-3.23,19.87Z"/><path d="M89.21,138.5a2.34,2.34,0,0,1-2.65,2.65h-7.4q-2.7,0-2.7-3.35c0-.27,0-.66,0-1.19s0-.9,0-1.13H79.6v3h6.52v-6H81a4.66,4.66,0,0,1-3.46-1.39,4.76,4.76,0,0,1-1.39-3.51V114.27a4.85,4.85,0,0,1,1.22-3.37,4.11,4.11,0,0,1,3.21-1.35q.54,0,5.56.78v-.63h3.09Zm-3.09-8.74V112.53c-2.47-.15-3.91-.23-4.32-.23a2.29,2.29,0,0,0-2.57,2.62v12.21a2.3,2.3,0,0,0,2.57,2.63Z"/><path d="M107.23,132.5h-3.07v-.63l-3.7.49a31.23,31.23,0,0,1-3.68.28,2.24,2.24,0,0,1-2.55-2.53v-8.32a2.33,2.33,0,0,1,2.65-2.63h7.33V112.3h-6.7v3.89h-3v-3.85a2.33,2.33,0,0,1,2.63-2.64h7.5a2.32,2.32,0,0,1,2.62,2.64Zm-3-2.84V121.6h-7v8.2Z"/><path d="M115.65,104.7h-3.17v-3.93h3.17Zm-.05,27.8h-3.07V109.7h3.07Z"/><path d="M134,132.5h-3.12v-20l-6.86.19V132.5H120.9V109.7H124v.63l3.68-.49a30.68,30.68,0,0,1,3.7-.29,2.28,2.28,0,0,1,2.6,2.56Z"/></g></svg>
