<svg xmlns="http://www.w3.org/2000/svg" viewBox="0 0 250 250"><defs><style>.cls-1{fill:#d82a36;}.cls-1,.cls-2{stroke:#a30d0d;stroke-miterlimit:10;}.cls-2{fill:#93292d;}</style></defs><title>Startsknap</title><g id="Start"><ellipse class="cls-1" cx="126.75" cy="124.75" rx="119.25" ry="107.25"/><ellipse class="cls-2" cx="127.42" cy="124.13" rx="109.14" ry="94.23"/><path d="M98.85,130.86a2.28,2.28,0,0,1-.72,1.75,2.64,2.64,0,0,1-1.88.67H86.92a2.73,2.73,0,0,1-1.91-.67,2.24,2.24,0,0,1-.75-1.75v-8.65h3.3v8.39h8v-8.13L85.33,111.1a3.8,3.8,0,0,1-1.07-2.6v-6.91A2.23,2.23,0,0,1,85,99.85a2.74,2.74,0,0,1,1.91-.68h9.33a2.65,2.65,0,0,1,1.88.68,2.28,2.28,0,0,1,.72,1.74v7.94H95.56v-7.68h-8v7.2l10.28,11.37a3.77,3.77,0,0,1,1,2.55Z"/><path d="M117.45,101.85h-5.73v31.43h-3.3V101.85h-5.78V99.17h14.81Z"/><path d="M136.25,133.28H133l-1.31-7.58h-7.36L123,133.28h-3.17v-.09l6.61-34.1h3.24Zm-5-10.26L128,104.53,124.74,123Z"/><path d="M156.48,133.28H153L146.13,115l.45-.61h5.88V101.85H144v31.43h-3.29V99.17h12.41a2.69,2.69,0,0,1,1.89.68,2.26,2.26,0,0,1,.74,1.74v13q0,2.46-3.6,2.46l-1.05,0-1,0Q153.31,125.09,156.48,133.28Z"/><path d="M174.18,101.85h-5.74v31.43h-3.29V101.85h-5.78V99.17h14.81Z"/><ellipse cx="127.46" cy="125.99" rx="98.98" ry="90.51"/><ellipse class="cls-1" cx="127.42" cy="125.99" rx="91.63" ry="84.93"/><path d="M88.71,146.92a4.28,4.28,0,0,1-1.36,3.28,5,5,0,0,1-3.54,1.27H66.25a5.12,5.12,0,0,1-3.59-1.27,4.22,4.22,0,0,1-1.41-3.28V130.64h6.2v15.79H82.51v-15.3L63.26,109.72a7.09,7.09,0,0,1-2-4.88v-13a4.22,4.22,0,0,1,1.41-3.28,5.12,5.12,0,0,1,3.59-1.27H83.81a5,5,0,0,1,3.54,1.27,4.28,4.28,0,0,1,1.36,3.28v14.93h-6.2V92.33H67.45v13.54l19.34,21.41a7,7,0,0,1,1.92,4.79Z"/><path d="M114.56,151.47h-8.42q-5,0-5-4.63V116.37H95.93v-4.8h5.21V99.14H107v12.43h7.58v4.8H107v30.3h7.58Z"/><path d="M146.65,151.47h-5.84v-1.1c-2.35.3-4.69.58-7,.86a67.85,67.85,0,0,1-7,.49q-4.86,0-4.86-4.43V132.73q0-4.59,5-4.59h14v-12H128.15v6.81H122.4V116.2q0-4.64,5-4.63h14.26q5,0,5,4.63Zm-5.75-5V132.4H127.66v14.36Z"/><path d="M179.05,124.69h-5.84v-8.24l-10.92.33v34.69h-5.92v-39.9h5.92v1.11c2-.28,3.94-.56,5.93-.87a46.32,46.32,0,0,1,5.93-.49q4.9,0,4.9,4.47Z"/><path d="M202.18,151.47h-8.42q-5,0-5-4.63V116.37h-5.22v-4.8h5.22V99.14h5.84v12.43h7.57v4.8h-7.57v30.3h7.57Z"/></g></svg>
