<svg xmlns="http://www.w3.org/2000/svg" xmlns:xlink="http://www.w3.org/1999/xlink" viewBox="0 0 63.85 100.71"><defs><style>.cls-1{fill:url(#Ikke-navngivet_forløb_11);}.cls-2{fill:#ff0006;}.cls-3{fill:url(#Ikke-navngivet_forløb_12);}.cls-4{font-size:16.91px;font-family:AgencyFB-Reg, Agency FB;}</style><radialGradient id="Ikke-navngivet_forløb_11" cx="37.39" cy="30" r="24.83" gradientTransform="translate(-19.95 -1.74) scale(1.26 1.16)" gradientUnits="userSpaceOnUse"><stop offset="0" stop-color="#fff"/><stop offset="0.02" stop-color="#fff4f4"/><stop offset="0.14" stop-color="#ffbcbc"/><stop offset="0.25" stop-color="#ff8a8a"/><stop offset="0.37" stop-color="#ff5f5f"/><stop offset="0.49" stop-color="#ff3d3d"/><stop offset="0.61" stop-color="#f22"/><stop offset="0.74" stop-color="#ff0f0f"/><stop offset="0.87" stop-color="#ff0404"/><stop offset="1" stop-color="red"/></radialGradient><radialGradient id="Ikke-navngivet_forløb_12" cx="29.24" cy="64.37" r="9.51" gradientUnits="userSpaceOnUse"><stop offset="0" stop-color="#f20a0a"/><stop offset="0.45" stop-color="#fb0303"/><stop offset="1" stop-color="red"/></radialGradient></defs><title>ball18</title><g id="Lag_1" data-name="Lag 1"><path d="M31,73.24a8.44,8.44,0,0,0,5.51,6.85c3.23,1.2,5,1.72,6.12,5.39a12.8,12.8,0,0,0,2.11,4.84C47,93,49.07,92.1,52,92.41a6,6,0,0,1,5.23,3.64,7.45,7.45,0,0,0,1.14,2c.55.61,2.51,1.22,2.77,1.83.76,1.77,3.34.24,2.59-1.51-.45-1-1-.93-1.75-1.62s-1.32-.9-2-1.93c-.44-.67-.54-1.57-1-2.26-1.6-2.56-3.72-3.08-6.49-3.34-3-.3-5.82-.61-6.86-3.92a16.81,16.81,0,0,0-1.84-4.81c-2.81-4-9-2.23-10-8.09-.32-1.9-3.21-1.1-2.89.8Z"/><path d="M34,73.08c-.48-1.79-.88-3.59-1.22-5.42s-3.24-1.09-2.89.8.74,3.63,1.22,5.41A1.5,1.5,0,0,0,34,73.08Z"/><ellipse class="cls-1" cx="27" cy="33" rx="26.5" ry="32.5"/><path class="cls-2" d="M27,1C41.34,1,53,15.36,53,33S41.34,65,27,65,1,50.64,1,33,12.66,1,27,1m0-1C12.09,0,0,14.77,0,33S12.09,66,27,66,54,51.23,54,33,41.91,0,27,0Z"/><polygon class="cls-3" points="26.73 67.61 21.33 63.21 26.47 60.63 26.99 53.49 31.01 59.42 36.75 59.08 34.26 65.59 37.14 72.75 31.55 70.53 27.82 75.25 26.73 67.61"/><path class="cls-2" d="M27.38,55l3.06,4.5.32.47.56,0L36,59.63l-2.13,5.6-.14.36.14.37,2.37,5.9L32.08,70.2l-.69-.28-.46.59L28.15,74l-.9-6.29-.05-.39-.3-.25-4.65-3.78,4.19-2.1L27,61l0-.56L27.38,55M26.6,52,26,60.31l-5.57,2.8,5.84,4.76,1.23,8.61,4.22-5.35L38,73.65,34.8,65.59l2.69-7.05-6.22.36L26.6,52Z"/><text class="cls-4" transform="translate(4 40.61) scale(1.36 1)"><tspan xml:space="preserve"> HTML  </tspan></text></g></svg>
