<svg id="Lag_1" data-name="Lag 1" xmlns="http://www.w3.org/2000/svg" viewBox="0 0 65 56"><defs><style>.cls-1{fill:#d49900;}.cls-2{fill:#684204;}.cls-3{fill:#63470a;}.cls-4{fill:#bf001e;}.cls-5{fill:#bf2d00;}.cls-6{fill:#6d4d23;}</style></defs><title>kasse</title><polygon class="cls-1" points="49.5 45.78 49.5 13.91 59.5 20.27 59.5 54.87 49.5 45.78"/><path class="cls-2" d="M50,14.82l9,5.73V53.74l-9-8.18V14.82M49,13V46L60,56V20L49,13Z"/><polygon class="cls-1" points="4.45 46.52 0.56 13.5 48.5 13.5 48.5 48.48 4.45 46.52"/><path class="cls-3" d="M48,14V48L4.89,46,1.12,14H48m1-1H0L4,47l45,2V13Z"/><ellipse class="cls-4" cx="8" cy="14.5" rx="5.5" ry="8"/><path class="cls-5" d="M8,7c2.76,0,5,3.36,5,7.5S10.76,22,8,22s-5-3.36-5-7.5S5.24,7,8,7M8,6C4.69,6,2,9.81,2,14.5S4.69,23,8,23s6-3.81,6-8.5S11.31,6,8,6Z"/><polygon class="cls-1" points="0.5 45.78 0.5 13.91 10.5 20.27 10.5 54.87 0.5 45.78"/><path class="cls-2" d="M1,14.82l9,5.73V53.74L1,45.56V14.82M0,13V46L11,56V20L0,13Z"/><polygon class="cls-1" points="19.28 32.5 11.89 20.5 59.66 20.5 64.27 32.5 19.28 32.5"/><path class="cls-6" d="M59.31,21l4.23,11h-44L12.79,21H59.31M60,20H11l8,13H65L60,20Z"/><ellipse class="cls-4" cx="18" cy="8.5" rx="5.5" ry="8"/><path class="cls-5" d="M18,1c2.76,0,5,3.36,5,7.5S20.76,16,18,16s-5-3.36-5-7.5S15.24,1,18,1m0-1c-3.31,0-6,3.81-6,8.5S14.69,17,18,17s6-3.81,6-8.5S21.31,0,18,0Z"/><ellipse class="cls-4" cx="18" cy="15.5" rx="5.5" ry="8"/><path class="cls-5" d="M18,8c2.76,0,5,3.36,5,7.5S20.76,23,18,23s-5-3.36-5-7.5S15.24,8,18,8m0-1c-3.31,0-6,3.81-6,8.5S14.69,24,18,24s6-3.81,6-8.5S21.31,7,18,7Z"/><path class="cls-4" d="M53.19,21.32c-2.66,0-5.38-2.62-6.46-6.24-1.26-4.23.07-8.38,3-9.25a4,4,0,0,1,1.1-.16c2.66,0,5.38,2.63,6.46,6.25,1.26,4.23-.07,8.38-3,9.24A3.66,3.66,0,0,1,53.19,21.32Z"/><path class="cls-5" d="M50.81,6.18h0c2.45,0,5,2.47,6,5.89a9.47,9.47,0,0,1,.05,5.65,4.33,4.33,0,0,1-2.69,3,3.42,3.42,0,0,1-1,.13c-2.44,0-5-2.47-6-5.89a9.47,9.47,0,0,1-.05-5.65,4.33,4.33,0,0,1,2.69-3,3.42,3.42,0,0,1,1-.13m0-1a4,4,0,0,0-1.24.18c-3.18.95-4.66,5.36-3.32,9.86,1.17,3.92,4.1,6.6,6.94,6.6a4,4,0,0,0,1.24-.18c3.18-.95,4.66-5.36,3.32-9.86-1.17-3.92-4.1-6.61-6.94-6.6Z"/><ellipse class="cls-4" cx="34" cy="8.5" rx="5.5" ry="8"/><path class="cls-5" d="M34,1c2.76,0,5,3.36,5,7.5S36.76,16,34,16s-5-3.36-5-7.5S31.24,1,34,1m0-1c-3.31,0-6,3.81-6,8.5S30.69,17,34,17s6-3.81,6-8.5S37.31,0,34,0Z"/><ellipse class="cls-4" cx="50" cy="8.5" rx="5.5" ry="8"/><path class="cls-5" d="M50,1c2.76,0,5,3.36,5,7.5S52.76,16,50,16s-5-3.36-5-7.5S47.24,1,50,1m0-1c-3.31,0-6,3.81-6,8.5S46.69,17,50,17s6-3.81,6-8.5S53.31,0,50,0Z"/><ellipse class="cls-4" cx="43" cy="11.5" rx="5.5" ry="8"/><path class="cls-5" d="M43,4c2.76,0,5,3.36,5,7.5S45.76,19,43,19s-5-3.36-5-7.5S40.24,4,43,4m0-1c-3.31,0-6,3.81-6,8.5S39.69,20,43,20s6-3.81,6-8.5S46.31,3,43,3Z"/><ellipse class="cls-4" cx="38" cy="14.5" rx="5.5" ry="8"/><path class="cls-5" d="M38,7c2.76,0,5,3.36,5,7.5S40.76,22,38,22s-5-3.36-5-7.5S35.24,7,38,7m0-1c-3.31,0-6,3.81-6,8.5S34.69,23,38,23s6-3.81,6-8.5S41.31,6,38,6Z"/><ellipse class="cls-4" cx="26" cy="11.5" rx="5.5" ry="8"/><path class="cls-5" d="M26,4c2.76,0,5,3.36,5,7.5S28.76,19,26,19s-5-3.36-5-7.5S23.24,4,26,4m0-1c-3.31,0-6,3.81-6,8.5S22.69,20,26,20s6-3.81,6-8.5S29.31,3,26,3Z"/><rect class="cls-1" x="11.5" y="20.5" width="48" height="35"/><path class="cls-6" d="M59,21V55H12V21H59m1-1H11V56H60V20Z"/><polygon class="cls-1" points="15.38 35.5 11.65 21.5 59.59 21.5 62.39 35.5 15.38 35.5"/><path class="cls-6" d="M59.18,22l2.6,13h-46L12.3,22H59.18M60,21H11l4,15H63L60,21Z"/></svg>
