<svg id="Lag_1" data-name="Lag 1" xmlns="http://www.w3.org/2000/svg" xmlns:xlink="http://www.w3.org/1999/xlink" viewBox="0 0 701.24 635.62"><defs><style>.cls-1{fill:url(#Ikke-navngivet_forløb_29);}.cls-2{fill:#6bcbe8;}.cls-3{font-size:60px;font-family:AgencyFB-Reg, Agency FB;}</style><linearGradient id="Ikke-navngivet_forløb_29" x1="350.62" y1="635.62" x2="350.62" gradientUnits="userSpaceOnUse"><stop offset="0" stop-color="#1e9cd7"/><stop offset="0.43" stop-color="#cce0f4"/><stop offset="0.48" stop-color="#c5dcf2"/><stop offset="0.54" stop-color="#b2d3ed"/><stop offset="0.62" stop-color="#94c2e5"/><stop offset="0.7" stop-color="#69acda"/><stop offset="0.79" stop-color="#328fcb"/><stop offset="0.87" stop-color="#0075be"/><stop offset="0.99" stop-color="#005b97"/></linearGradient></defs><title>sky</title><path class="cls-1" d="M213.34,635.12A86.52,86.52,0,0,1,181.1,629c-39-15.56-63-58.34-62.56-111.64v-.43l-.42-.07a87.84,87.84,0,0,1-40.41-17.73C56.06,482,43.65,454.87,42.79,422.86v-.14l-.08-.12a86.37,86.37,0,0,1-10.84-23C24,373.4,29.18,344.41,46.33,317.92l.26-.4-.38-.28C16.73,295.92.5,267.26.5,236.55c0-57,56.68-104.78,131.84-111.26l.33,0,.1-.31a188.71,188.71,0,0,1,31.67-58.09c16.33-20.61,36.48-37.62,58.26-49.2C243.82,6.44,266,.5,286.92.5c22,0,42,6.63,57.85,19.18,18,14.23,29.54,35.1,33.49,60.33l.07.44h.44c1.57,0,3.16-.08,4.74-.08,28.37,0,57.75,7.58,85,21.9a196.56,196.56,0,0,1,30.18,19.59l.27.21.29-.18c23.4-14,48.22-21.42,71.77-21.42,22,0,42,6.63,57.84,19.17,26.24,20.8,38.65,55.78,34,96A180.92,180.92,0,0,1,658,259.09l-.07.33.29.2c19.39,12.79,32.85,30.26,38.9,50.51,17.7,59.17-31.93,126.46-110.64,150a197.34,197.34,0,0,1-35.64,7.18l-.44,0v.44a85.62,85.62,0,0,1-1.58,14.29c-9.81,50-63.28,84.9-130,84.9h0A196.07,196.07,0,0,1,381,563.27a193.3,193.3,0,0,1-47.12-15.65l-.44-.21-.22.44C306.59,600.86,259.52,635.12,213.34,635.12Z"/><path class="cls-2" d="M286.92,0V1c21.91,0,41.81,6.59,57.54,19.07,17.86,14.15,29.37,34.91,33.31,60l.14.87.88,0c1.56,0,3.15-.08,4.72-.08,28.29,0,57.59,7.56,84.72,21.84a196.38,196.38,0,0,1,30.11,19.54l.54.43.59-.36c23.32-14,48-21.35,71.51-21.35,21.91,0,41.8,6.59,57.53,19.06,26.1,20.69,38.44,55.51,33.87,95.54v.12A180.69,180.69,0,0,1,657.54,259l-.16.68.58.38c19.3,12.74,32.68,30.11,38.7,50.24,17.63,58.9-31.86,125.92-110.31,149.39a196.85,196.85,0,0,1-35.55,7.16l-.87.09,0,.88a84.55,84.55,0,0,1-1.57,14.2c-9.77,49.75-63,84.5-129.54,84.5a195.83,195.83,0,0,1-37.66-3.71,192.6,192.6,0,0,1-47-15.61l-.89-.43-.44.88c-13.1,26-31.4,48-52.92,63.56-21.24,15.33-44.25,23.44-66.55,23.44a86.11,86.11,0,0,1-32.05-6.09c-19.3-7.7-35.29-22.34-46.24-42.33-10.67-19.49-16.21-43.3-16-68.85v-.85l-.84-.14A87.51,87.51,0,0,1,78,498.73c-21.54-17.08-33.88-44-34.74-75.88v-.29l-.16-.24a85.49,85.49,0,0,1-10.78-22.9c-7.78-26-2.66-54.87,14.41-81.23l.52-.8-.77-.55c-14.25-10.31-25.45-22.41-33.29-36A87.68,87.68,0,0,1,1,236.55c0-27.49,13.45-53.9,37.87-74.36s57.51-33.3,93.51-36.4l.66-.06.2-.62a188.28,188.28,0,0,1,31.59-57.94c16.29-20.55,36.39-37.52,58.1-49.06C244,6.91,266.11,1,286.92,1V0m0,0c-42,0-88.94,23.75-122.87,66.55a190.48,190.48,0,0,0-31.76,58.24C57.83,131.21,0,178.79,0,236.55c0,31.86,17.62,60.63,45.91,81.1-16.63,25.68-22.71,54.7-14.52,82.06a86.18,86.18,0,0,0,10.9,23.17c.84,31,12.49,58.69,35.12,76.63A88.5,88.5,0,0,0,118,517.34c-.4,51.54,22.48,96,62.88,112.11a86.92,86.92,0,0,0,32.42,6.17c45.57,0,93.34-33.84,120.36-87.55A194,194,0,0,0,381,563.76a196.6,196.6,0,0,0,37.85,3.73c65.47,0,120.45-34,130.52-85.31a84.61,84.61,0,0,0,1.59-14.37,197.29,197.29,0,0,0,35.73-7.19c79.1-23.67,128.79-91.11,111-150.63-6.3-21.08-20.24-38.34-39.11-50.79a182.27,182.27,0,0,0,4.86-43.53c4.43-38.81-6.88-74.75-34.24-96.43C612.65,106.17,592.47,100,571,100c-23.5,0-48.56,7.44-72,21.49a197.06,197.06,0,0,0-30.26-19.63c-28.17-14.83-57.78-21.95-85.19-22-1.59,0-3.17,0-4.75.08-3.83-24.44-15-45.86-33.68-60.66C328.6,6.22,308.41,0,286.92,0Z"/><text class="cls-3" transform="translate(137.25 288.1)">Læring på Semester 1.</text><text class="cls-3" transform="translate(234.59 383.12)">Se lige her!</text></svg>
