<svg xmlns="http://www.w3.org/2000/svg" xmlns:xlink="http://www.w3.org/1999/xlink" viewBox="0 0 1366 768"><defs><style>.cls-1{fill:none;}.cls-2{fill:#3160bc;}.cls-3{fill:#d49900;}.cls-4{fill:#684204;}.cls-5{fill:#63470a;}.cls-6{fill:#bf001e;}.cls-7{fill:#bf2d00;}.cls-8{fill:#6d4d23;}.cls-9{fill:#ffcaa5;}.cls-10{clip-path:url(#clip-path);}.cls-11{fill:#d42300;}.cls-12{fill:#d32300;}.cls-13{fill:#d22300;}.cls-14{fill:#d12301;}.cls-15{fill:#d02301;}.cls-16{fill:#cf2301;}.cls-17{fill:#ce2301;}.cls-18{fill:#cd2301;}.cls-19{fill:#cc2301;}.cls-20{fill:#cb2302;}.cls-21{fill:#ca2302;}.cls-22{fill:#c92302;}.cls-23{fill:#c82302;}.cls-24{fill:#c72302;}.cls-25{fill:#c62303;}.cls-26{fill:#c52303;}.cls-27{fill:#c42303;}.cls-28{fill:#c32303;}.cls-29{fill:#c22303;}.cls-30{fill:#c12303;}.cls-31{fill:#c02304;}.cls-32{fill:#bf2304;}.cls-33{fill:#be2304;}.cls-34{fill:#bd2204;}.cls-35{fill:#bc2204;}.cls-36{fill:#bb2205;}.cls-37{fill:#ba2205;}.cls-38{fill:#b92205;}.cls-39{fill:#b82205;}.cls-40{fill:#b72205;}.cls-41{fill:#b62205;}.cls-42{fill:#b52206;}.cls-43{fill:#b42206;}.cls-44{fill:#b32206;}.cls-45{fill:#b22206;}.cls-46{fill:#b12206;}.cls-47{fill:#b02207;}.cls-48{fill:#af2207;}.cls-49{fill:#ae2207;}.cls-50{fill:#ad2207;}.cls-51{fill:#ac2207;}.cls-52{fill:#ab2207;}.cls-53{fill:#aa2208;}.cls-54{fill:#a92208;}.cls-55{fill:#a82208;}.cls-56{fill:#a72208;}.cls-57{fill:#a62208;}.cls-58{fill:#a52209;}.cls-59{fill:#a42209;}.cls-60{fill:#a32209;}.cls-61{fill:#a22209;}.cls-62{fill:#a12209;}.cls-63{fill:#a02209;}.cls-64{fill:#9f220a;}.cls-65{fill:#9e220a;}.cls-66{fill:#9d220a;}.cls-67{fill:#9c220a;}.cls-68{fill:#9b220a;}.cls-69{fill:#9a220b;}.cls-70{fill:#99220b;}.cls-71{fill:#98220b;}.cls-72{fill:#97220b;}.cls-73{fill:#96220b;}.cls-74{fill:#95220b;}.cls-75{fill:#94220c;}.cls-76{fill:#93220c;}.cls-77{fill:#92220c;}.cls-78{fill:#91210c;}.cls-79{fill:#90210c;}.cls-80{fill:#8f210d;}.cls-81{fill:#8e210d;}.cls-82{fill:#8d210d;}.cls-83{fill:#8c210d;}.cls-84{fill:#8b210d;}.cls-85{fill:#8a210d;}.cls-86{fill:#89210e;}.cls-87{fill:#88210e;}.cls-88{fill:#87210e;}.cls-89{fill:#86210e;}.cls-90{fill:#85210e;}.cls-91{fill:#84210f;}.cls-92{fill:#83210f;}.cls-93{fill:#82210f;}.cls-94{fill:#81210f;}.cls-95{fill:#80210f;}.cls-96{fill:#7f210f;}.cls-97{fill:#7e2110;}.cls-98{fill:#7d2110;}.cls-99{fill:#7c2110;}.cls-100{fill:#7a2110;}.cls-101{fill:#792110;}.cls-102{fill:#782111;}.cls-103{fill:#772111;}.cls-104{fill:#762111;}.cls-105{fill:#752111;}.cls-106{fill:#742111;}.cls-107{fill:#732111;}.cls-108{fill:#722112;}.cls-109{fill:#712112;}.cls-110{fill:#702112;}.cls-111{fill:#6f2112;}.cls-112{fill:#6e2112;}.cls-113{fill:#6d2113;}.cls-114{fill:#6c2113;}.cls-115{fill:#6b2113;}.cls-116{fill:#6a2113;}.cls-117{fill:#692113;}.cls-118{fill:#682113;}.cls-119{fill:#672114;}.cls-120{fill:#662114;}.cls-121{fill:#652114;}.cls-122{fill:#642014;}.cls-123{fill:#632014;}.cls-124{fill:#622015;}.cls-125{fill:#612015;}.cls-126{fill:#602015;}.cls-127{fill:#5f2015;}.cls-128{fill:#5e2015;}.cls-129{fill:#5d2015;}.cls-130{fill:#5c2016;}.cls-131{fill:#5b2016;}.cls-132{fill:#5a2016;}.cls-133{fill:#592016;}.cls-134{fill:#582016;}.cls-135{fill:#572017;}.cls-136{fill:#562017;}.cls-137{fill:#552017;}.cls-138{fill:#542017;}.cls-139{fill:#532017;}.cls-140{fill:#522017;}.cls-141{fill:#512018;}.cls-142{fill:#502018;}.cls-143{fill:#4f2018;}.cls-144{fill:#4e2018;}.cls-145{fill:#4d2018;}.cls-146{fill:#4c2019;}.cls-147{fill:#4b2019;}.cls-148{fill:#4a2019;}.cls-149{fill:#492019;}.cls-150{fill:#482019;}.cls-151{fill:#472019;}.cls-152{fill:#46201a;}.cls-153{fill:#45201a;}.cls-154{fill:#44201a;}.cls-155{fill:#43201a;}.cls-156{fill:#42201a;}.cls-157{fill:#41201b;}.cls-158{fill:#40201b;}.cls-159{fill:#3f201b;}.cls-160{fill:#3e201b;}.cls-161{fill:#3d201b;}.cls-162{fill:#3c201b;}.cls-163{fill:#3b201c;}.cls-164{fill:#3a201c;}.cls-165{fill:#39201c;}.cls-166{fill:#381f1c;}.cls-167{fill:#371f1c;}.cls-168{fill:#361f1d;}.cls-169{fill:#351f1d;}.cls-170{fill:#341f1d;}.cls-171{fill:#331f1d;}.cls-172{fill:#321f1d;}.cls-173{fill:#311f1d;}.cls-174{fill:#301f1e;}.cls-175{fill:#2f1f1e;}.cls-176{fill:#2e1f1e;}.cls-177{fill:#2d1f1e;}.cls-178{fill:#2c1f1e;}.cls-179{fill:#2b1f1f;}.cls-180{fill:#2a1f1f;}.cls-181{fill:#291f1f;}.cls-182{fill:#281f1f;}.cls-183{fill:#271f1f;}.cls-184{fill:#261f1f;}.cls-185{fill:#251f20;}.cls-186{fill:#241f20;}.cls-187{fill:#231f20;}.cls-188{fill:#261f20;}.cls-189{fill:#2c1e1f;}.cls-190{fill:#2d1e1e;}.cls-191{fill:#2e1e1e;}.cls-192{fill:#2f1e1e;}.cls-193{fill:#301e1e;}.cls-194{fill:#311e1e;}.cls-195{fill:#321e1e;}.cls-196{fill:#331e1d;}.cls-197{fill:#341e1d;}.cls-198{fill:#351e1d;}.cls-199{fill:#361e1d;}.cls-200{fill:#371e1d;}.cls-201{fill:#381e1d;}.cls-202{fill:#391e1c;}.cls-203{fill:#3a1e1c;}.cls-204{fill:#3b1e1c;}.cls-205{fill:#3c1d1c;}.cls-206{fill:#3d1d1c;}.cls-207{fill:#3e1d1c;}.cls-208{fill:#3f1d1b;}.cls-209{fill:#401d1b;}.cls-210{fill:#411d1b;}.cls-211{fill:#421d1b;}.cls-212{fill:#431d1b;}.cls-213{fill:#441d1b;}.cls-214{fill:#451d1a;}.cls-215{fill:#461d1a;}.cls-216{fill:#471d1a;}.cls-217{fill:#481d1a;}.cls-218{fill:#491d1a;}.cls-219{fill:#4a1d1a;}.cls-220{fill:#4b1d1a;}.cls-221{fill:#4c1d19;}.cls-222{fill:#4d1c19;}.cls-223{fill:#4e1c19;}.cls-224{fill:#4f1c19;}.cls-225{fill:#501c19;}.cls-226{fill:#511c19;}.cls-227{fill:#521c18;}.cls-228{fill:#531c18;}.cls-229{fill:#541c18;}.cls-230{fill:#551c18;}.cls-231{fill:#561c18;}.cls-232{fill:#571c18;}.cls-233{fill:#581c17;}.cls-234{fill:#591c17;}.cls-235{fill:#5a1c17;}.cls-236{fill:#5b1c17;}.cls-237{fill:#5c1c17;}.cls-238{fill:#5d1b17;}.cls-239{fill:#5e1b16;}.cls-240{fill:#5f1b16;}.cls-241{fill:#601b16;}.cls-242{fill:#611b16;}.cls-243{fill:#621b16;}.cls-244{fill:#631b16;}.cls-245{fill:#641b15;}.cls-246{fill:#651b15;}.cls-247{fill:#661b15;}.cls-248{fill:#671b15;}.cls-249{fill:#681b15;}.cls-250{fill:#691b15;}.cls-251{fill:#6a1b14;}.cls-252{fill:#6b1b14;}.cls-253{fill:#6c1b14;}.cls-254{fill:#6d1a14;}.cls-255{fill:#6e1a14;}.cls-256{fill:#6f1a14;}.cls-257{fill:#701a13;}.cls-258{fill:#711a13;}.cls-259{fill:#721a13;}.cls-260{fill:#731a13;}.cls-261{fill:#741a13;}.cls-262{fill:#751a13;}.cls-263{fill:#761a13;}.cls-264{fill:#771a12;}.cls-265{fill:#781a12;}.cls-266{fill:#791a12;}.cls-267{fill:#7a1a12;}.cls-268{fill:#7b1a12;}.cls-269{fill:#7c1a12;}.cls-270{fill:#7d1a11;}.cls-271{fill:#7e1911;}.cls-272{fill:#7f1911;}.cls-273{fill:#801911;}.cls-274{fill:#811911;}.cls-275{fill:#821911;}.cls-276{fill:#831910;}.cls-277{fill:#841910;}.cls-278{fill:#851910;}.cls-279{fill:#871910;}.cls-280{fill:#881910;}.cls-281{fill:#891910;}.cls-282{fill:#8a190f;}.cls-283{fill:#8b190f;}.cls-284{fill:#8c190f;}.cls-285{fill:#8d190f;}.cls-286{fill:#8e190f;}.cls-287{fill:#8f180f;}.cls-288{fill:#90180e;}.cls-289{fill:#91180e;}.cls-290{fill:#92180e;}.cls-291{fill:#93180e;}.cls-292{fill:#94180e;}.cls-293{fill:#95180e;}.cls-294{fill:#96180d;}.cls-295{fill:#97180d;}.cls-296{fill:#98180d;}.cls-297{fill:#99180d;}.cls-298{fill:#9a180d;}.cls-299{fill:#9b180d;}.cls-300{fill:#9c180d;}.cls-301{fill:#9d180c;}.cls-302{fill:#9e180c;}.cls-303{fill:#9f180c;}.cls-304{fill:#a0170c;}.cls-305{fill:#a1170c;}.cls-306{fill:#a2170c;}.cls-307{fill:#a3170b;}.cls-308{fill:#a4170b;}.cls-309{fill:#a5170b;}.cls-310{fill:#a6170b;}.cls-311{fill:#a7170b;}.cls-312{fill:#a8170b;}.cls-313{fill:#a9170a;}.cls-314{fill:#aa170a;}.cls-315{fill:#ab170a;}.cls-316{fill:#ac170a;}.cls-317{fill:#ad170a;}.cls-318{fill:#ae170a;}.cls-319{fill:#af1709;}.cls-320{fill:#b01609;}.cls-321{fill:#b11609;}.cls-322{fill:#b21609;}.cls-323{fill:#b31609;}.cls-324{fill:#b41609;}.cls-325{fill:#b51608;}.cls-326{fill:#b61608;}.cls-327{fill:#b71608;}.cls-328{fill:#b81608;}.cls-329{fill:#b91608;}.cls-330{fill:#ba1608;}.cls-331{fill:#bb1607;}.cls-332{fill:#bc1607;}.cls-333{fill:#bd1607;}.cls-334{fill:#be1607;}.cls-335{fill:#bf1607;}.cls-336{fill:#c01507;}.cls-337{fill:#c11506;}.cls-338{fill:#c21506;}.cls-339{fill:#c31506;}.cls-340{fill:#c41506;}.cls-341{fill:#c51506;}.cls-342{fill:#c61506;}.cls-343{fill:#c71506;}.cls-344{fill:#c81505;}.cls-345{fill:#c91505;}.cls-346{fill:#ca1505;}.cls-347{fill:#cb1505;}.cls-348{fill:#cc1505;}.cls-349{fill:#cd1505;}.cls-350{fill:#ce1504;}.cls-351{fill:#cf1504;}.cls-352{fill:#d01504;}.cls-353{fill:#d11404;}.cls-354{fill:#d21404;}.cls-355{fill:#d31404;}.cls-356{fill:#d41403;}.cls-357{fill:#d51403;}.cls-358{fill:#d61403;}.cls-359{fill:#d71403;}.cls-360{fill:#d81403;}.cls-361{fill:#d91403;}.cls-362{fill:#da1402;}.cls-363{fill:#db1402;}.cls-364{fill:#dc1402;}.cls-365{fill:#dd1402;}.cls-366{fill:#de1402;}.cls-367{fill:#df1402;}.cls-368{fill:#e01401;}.cls-369{fill:#e11301;}.cls-370{fill:#e21301;}.cls-371{fill:#e31301;}.cls-372{fill:#e41301;}.cls-373{fill:#e51301;}.cls-374{fill:#e61300;}.cls-375{fill:#e71300;}.cls-376{fill:#e81300;}.cls-377{fill:#e91300;}.cls-378{fill:#ff0322;}.cls-379{fill:#020001;}.cls-380,.cls-383,.cls-389,.cls-393{fill:#2ef6ff;}.cls-381{fill:#e1ff02;}.cls-382{fill:#f3ffad;}.cls-383{stroke:#ed1c24;}.cls-383,.cls-387,.cls-388,.cls-389,.cls-390,.cls-391,.cls-392,.cls-393{stroke-miterlimit:10;}.cls-384,.cls-391{fill:#ff1d08;}.cls-385{fill:#fff;}.cls-386,.cls-392{fill:#ff032d;}.cls-387,.cls-388{fill:#052355;}.cls-387{stroke:#eef408;}.cls-388{stroke:#000;}.cls-389{stroke:#fff;}.cls-390{fill:#ff3131;stroke:#f4f408;}.cls-391,.cls-392,.cls-393{stroke:#efff00;}.cls-392,.cls-393{stroke-width:2px;}</style><clipPath id="clip-path"><ellipse class="cls-1" cx="161.35" cy="537.32" rx="5.05" ry="10.5"/></clipPath></defs><title>blueSky</title><g id="Lag_1" data-name="Lag 1"><rect class="cls-2" x="0.5" y="0.5" width="1365" height="767"/><path d="M1365,1V767H1V1H1365m1-1H0V768H1366V0Z"/><polygon class="cls-3" points="411.7 727.52 411.7 609.01 452.5 633.78 452.5 762.9 411.7 727.52"/><path class="cls-4" d="M412.2,609.9,452,634.06V761.81l-39.8-34.52V609.9m-1-1.77V727.75L453,764V633.5l-41.8-25.37Z"/><polygon class="cls-3" points="240.65 730.89 225.56 608.63 410.7 608.63 410.7 738.1 240.65 730.89"/><path class="cls-5" d="M410.2,609.13V737.58l-169.11-7.17-15-121.28H410.2m1-1H225l15.2,123.25,171,7.25V608.13Z"/><path class="cls-6" d="M255.4,643.88c-12.3,0-22.3-13.6-22.3-30.32s10-30.31,22.3-30.31,22.3,13.6,22.3,30.31S267.7,643.88,255.4,643.88Z"/><path class="cls-7" d="M255.4,583.75c12,0,21.8,13.37,21.8,29.81s-9.78,29.82-21.8,29.82S233.6,630,233.6,613.56s9.78-29.81,21.8-29.81m0-1c-12.59,0-22.8,13.8-22.8,30.81s10.21,30.82,22.8,30.82,22.8-13.8,22.8-30.82S268,582.75,255.4,582.75Z"/><polygon class="cls-3" points="225.5 727.52 225.5 609.01 266.3 633.78 266.3 762.9 225.5 727.52"/><path class="cls-4" d="M226,609.9l39.8,24.16V761.81L226,727.29V609.9m-1-1.77V727.75L266.8,764V633.5L225,608.13Z"/><polygon class="cls-3" points="297.47 680.13 267.72 634 452.66 634 471.26 680.13 297.47 680.13"/><path class="cls-8" d="M452.32,634.5l18.2,45.13H297.74l-29.1-45.13H452.32m.68-1H266.8l30.4,47.13H472L453,633.5Z"/><path class="cls-6" d="M293.4,622.13c-12.3,0-22.3-13.6-22.3-30.32s10-30.31,22.3-30.31,22.3,13.6,22.3,30.31S305.7,622.13,293.4,622.13Z"/><path class="cls-7" d="M293.4,562c12,0,21.8,13.37,21.8,29.81s-9.78,29.82-21.8,29.82-21.8-13.38-21.8-29.82S281.38,562,293.4,562m0-1c-12.59,0-22.8,13.8-22.8,30.81s10.21,30.82,22.8,30.82,22.8-13.8,22.8-30.82S306,561,293.4,561Z"/><path class="cls-6" d="M293.4,647.5c-12.3,0-22.3-13.6-22.3-30.31s10-30.31,22.3-30.31,22.3,13.59,22.3,30.31S305.7,647.5,293.4,647.5Z"/><path class="cls-7" d="M293.4,587.38c12,0,21.8,13.37,21.8,29.81S305.42,647,293.4,647s-21.8-13.37-21.8-29.81,9.78-29.81,21.8-29.81m0-1c-12.59,0-22.8,13.79-22.8,30.81S280.81,648,293.4,648s22.8-13.8,22.8-30.81S306,586.38,293.4,586.38Z"/><path class="cls-6" d="M427.12,639.62c-10.72,0-21.6-9.93-25.89-23.6-2.89-9.24-2.36-18.95,1.43-26a17.9,17.9,0,0,1,10.83-9.15,16.42,16.42,0,0,1,4.59-.64c10.72,0,21.6,9.92,25.89,23.6,2.89,9.23,2.36,18.94-1.43,26A17.9,17.9,0,0,1,431.71,639,16.79,16.79,0,0,1,427.12,639.62Z"/><path class="cls-7" d="M418.08,579.76v1h0c10.5,0,21.19,9.78,25.41,23.25,2.86,9.11,2.33,18.67-1.39,25.58a17.42,17.42,0,0,1-10.52,8.91,16.28,16.28,0,0,1-4.46.62c-10.5,0-21.19-9.78-25.41-23.25-2.86-9.11-2.33-18.68,1.39-25.59a17.44,17.44,0,0,1,10.52-8.9,16.28,16.28,0,0,1,4.46-.62v-1m0,0a16.93,16.93,0,0,0-4.73.66c-12.07,3.44-17.7,19.44-12.59,35.75,4.45,14.2,15.59,24,26.36,24a17.31,17.31,0,0,0,4.73-.66c12.07-3.44,17.7-19.45,12.59-35.75-4.45-14.21-15.59-24-26.36-24Z"/><path class="cls-6" d="M354.2,622.13c-12.3,0-22.3-13.6-22.3-30.32s10-30.31,22.3-30.31,22.3,13.6,22.3,30.31S366.5,622.13,354.2,622.13Z"/><path class="cls-7" d="M354.2,562c12,0,21.8,13.37,21.8,29.81s-9.78,29.82-21.8,29.82-21.8-13.38-21.8-29.82S342.18,562,354.2,562m0-1c-12.59,0-22.8,13.8-22.8,30.81s10.21,30.82,22.8,30.82,22.8-13.8,22.8-30.82S366.79,561,354.2,561Z"/><ellipse class="cls-6" cx="415" cy="591.81" rx="22.3" ry="30.31"/><path class="cls-7" d="M415,562c12,0,21.8,13.37,21.8,29.81S427,621.63,415,621.63s-21.8-13.38-21.8-29.82S403,562,415,562m0-1c-12.59,0-22.8,13.8-22.8,30.81s10.21,30.82,22.8,30.82,22.8-13.8,22.8-30.82S427.59,561,415,561Z"/><path class="cls-6" d="M388.4,633c-12.3,0-22.3-13.6-22.3-30.31s10-30.31,22.3-30.31,22.3,13.59,22.3,30.31S400.7,633,388.4,633Z"/><path class="cls-7" d="M388.4,572.88c12,0,21.8,13.37,21.8,29.81s-9.78,29.81-21.8,29.81-21.8-13.37-21.8-29.81,9.78-29.81,21.8-29.81m0-1c-12.59,0-22.8,13.79-22.8,30.81s10.21,30.81,22.8,30.81,22.8-13.8,22.8-30.81S401,571.88,388.4,571.88Z"/><path class="cls-6" d="M369.4,643.88c-12.3,0-22.3-13.6-22.3-30.32s10-30.31,22.3-30.31,22.3,13.6,22.3,30.31S381.7,643.88,369.4,643.88Z"/><path class="cls-7" d="M369.4,583.75c12,0,21.8,13.37,21.8,29.81s-9.78,29.82-21.8,29.82S347.6,630,347.6,613.56s9.78-29.81,21.8-29.81m0-1c-12.59,0-22.8,13.8-22.8,30.81s10.21,30.82,22.8,30.82,22.8-13.8,22.8-30.82S382,582.75,369.4,582.75Z"/><path class="cls-6" d="M323.8,633c-12.3,0-22.3-13.6-22.3-30.31s10-30.31,22.3-30.31,22.3,13.59,22.3,30.31S336.1,633,323.8,633Z"/><path class="cls-7" d="M323.8,572.88c12,0,21.8,13.37,21.8,29.81s-9.78,29.81-21.8,29.81S302,619.13,302,602.69s9.78-29.81,21.8-29.81m0-1c-12.59,0-22.8,13.79-22.8,30.81s10.21,30.81,22.8,30.81,22.8-13.8,22.8-30.81-10.21-30.81-22.8-30.81Z"/><rect class="cls-3" x="267.3" y="634" width="185.2" height="129.5"/><path class="cls-8" d="M452,634.5V763H267.8V634.5H452m1-1H266.8V764H453V633.5Z"/><polygon class="cls-3" points="282.38 691 267.46 637.63 452.59 637.63 463.78 691 282.38 691"/><path class="cls-8" d="M452.19,638.13l11,52.37H282.76l-14.64-52.37H452.19m.81-1H266.8L282,691.5H464.4L453,637.13Z"/></g><g id="Lag_3" data-name="Lag 3"><ellipse class="cls-9" cx="165.02" cy="520.61" rx="39.45" ry="37.92"/><g class="cls-10"><rect class="cls-11" x="156.3" y="547.76" width="10.09" height="0.06"/><rect class="cls-12" x="156.3" y="547.7" width="10.09" height="0.06"/><rect class="cls-13" x="156.3" y="547.64" width="10.09" height="0.06"/><rect class="cls-14" x="156.3" y="547.58" width="10.09" height="0.06"/><rect class="cls-15" x="156.3" y="547.52" width="10.09" height="0.06"/><rect class="cls-16" x="156.3" y="547.46" width="10.09" height="0.06"/><rect class="cls-17" x="156.3" y="547.4" width="10.09" height="0.06"/><rect class="cls-18" x="156.3" y="547.34" width="10.09" height="0.06"/><rect class="cls-19" x="156.3" y="547.28" width="10.09" height="0.06"/><rect class="cls-20" x="156.3" y="547.22" width="10.09" height="0.06"/><rect class="cls-21" x="156.3" y="547.16" width="10.09" height="0.06"/><rect class="cls-22" x="156.3" y="547.1" width="10.09" height="0.06"/><rect class="cls-23" x="156.3" y="547.04" width="10.09" height="0.06"/><rect class="cls-24" x="156.3" y="546.98" width="10.09" height="0.06"/><rect class="cls-25" x="156.3" y="546.92" width="10.09" height="0.06"/><rect class="cls-26" x="156.3" y="546.86" width="10.09" height="0.06"/><rect class="cls-27" x="156.3" y="546.8" width="10.09" height="0.06"/><rect class="cls-28" x="156.3" y="546.74" width="10.09" height="0.06"/><rect class="cls-29" x="156.3" y="546.68" width="10.09" height="0.06"/><rect class="cls-30" x="156.3" y="546.62" width="10.09" height="0.06"/><rect class="cls-31" x="156.3" y="546.56" width="10.09" height="0.06"/><rect class="cls-32" x="156.3" y="546.5" width="10.09" height="0.06"/><rect class="cls-33" x="156.3" y="546.44" width="10.09" height="0.06"/><rect class="cls-34" x="156.3" y="546.38" width="10.09" height="0.06"/><rect class="cls-35" x="156.3" y="546.32" width="10.09" height="0.06"/><rect class="cls-36" x="156.3" y="546.26" width="10.09" height="0.06"/><rect class="cls-37" x="156.3" y="546.2" width="10.09" height="0.06"/><rect class="cls-38" x="156.3" y="546.14" width="10.09" height="0.06"/><rect class="cls-39" x="156.3" y="546.08" width="10.09" height="0.06"/><rect class="cls-40" x="156.3" y="546.02" width="10.09" height="0.06"/><rect class="cls-41" x="156.3" y="545.96" width="10.09" height="0.06"/><rect class="cls-42" x="156.3" y="545.9" width="10.09" height="0.06"/><rect class="cls-43" x="156.3" y="545.84" width="10.09" height="0.06"/><rect class="cls-44" x="156.3" y="545.78" width="10.09" height="0.06"/><rect class="cls-45" x="156.3" y="545.73" width="10.09" height="0.06"/><rect class="cls-46" x="156.3" y="545.67" width="10.09" height="0.06"/><rect class="cls-47" x="156.3" y="545.61" width="10.09" height="0.06"/><rect class="cls-48" x="156.3" y="545.55" width="10.09" height="0.06"/><rect class="cls-49" x="156.3" y="545.49" width="10.09" height="0.06"/><rect class="cls-50" x="156.3" y="545.43" width="10.09" height="0.06"/><rect class="cls-51" x="156.3" y="545.37" width="10.09" height="0.06"/><rect class="cls-52" x="156.3" y="545.31" width="10.09" height="0.06"/><rect class="cls-53" x="156.3" y="545.25" width="10.09" height="0.06"/><rect class="cls-54" x="156.3" y="545.19" width="10.09" height="0.06"/><rect class="cls-55" x="156.3" y="545.13" width="10.09" height="0.06"/><rect class="cls-56" x="156.3" y="545.07" width="10.09" height="0.06"/><rect class="cls-57" x="156.3" y="545.01" width="10.09" height="0.06"/><rect class="cls-58" x="156.3" y="544.95" width="10.09" height="0.06"/><rect class="cls-59" x="156.3" y="544.89" width="10.09" height="0.06"/><rect class="cls-60" x="156.3" y="544.83" width="10.09" height="0.06"/><rect class="cls-61" x="156.3" y="544.77" width="10.09" height="0.06"/><rect class="cls-62" x="156.3" y="544.71" width="10.09" height="0.06"/><rect class="cls-63" x="156.3" y="544.65" width="10.09" height="0.06"/><rect class="cls-64" x="156.3" y="544.59" width="10.09" height="0.06"/><rect class="cls-65" x="156.3" y="544.53" width="10.09" height="0.06"/><rect class="cls-66" x="156.3" y="544.47" width="10.09" height="0.06"/><rect class="cls-67" x="156.3" y="544.41" width="10.09" height="0.06"/><rect class="cls-68" x="156.3" y="544.35" width="10.09" height="0.06"/><rect class="cls-69" x="156.3" y="544.29" width="10.09" height="0.06"/><rect class="cls-70" x="156.3" y="544.23" width="10.09" height="0.06"/><rect class="cls-71" x="156.3" y="544.17" width="10.09" height="0.06"/><rect class="cls-72" x="156.3" y="544.11" width="10.09" height="0.06"/><rect class="cls-73" x="156.3" y="544.05" width="10.09" height="0.06"/><rect class="cls-74" x="156.3" y="543.99" width="10.09" height="0.06"/><rect class="cls-75" x="156.3" y="543.93" width="10.09" height="0.06"/><rect class="cls-76" x="156.3" y="543.87" width="10.09" height="0.06"/><rect class="cls-77" x="156.3" y="543.81" width="10.09" height="0.06"/><rect class="cls-78" x="156.3" y="543.75" width="10.09" height="0.06"/><rect class="cls-79" x="156.3" y="543.69" width="10.09" height="0.06"/><rect class="cls-80" x="156.3" y="543.63" width="10.09" height="0.06"/><rect class="cls-81" x="156.3" y="543.57" width="10.09" height="0.06"/><rect class="cls-82" x="156.3" y="543.51" width="10.09" height="0.06"/><rect class="cls-83" x="156.3" y="543.45" width="10.09" height="0.06"/><rect class="cls-84" x="156.3" y="543.39" width="10.09" height="0.06"/><rect class="cls-85" x="156.3" y="543.34" width="10.09" height="0.06"/><rect class="cls-86" x="156.3" y="543.28" width="10.09" height="0.06"/><rect class="cls-87" x="156.3" y="543.22" width="10.09" height="0.06"/><rect class="cls-88" x="156.3" y="543.16" width="10.09" height="0.06"/><rect class="cls-89" x="156.3" y="543.1" width="10.09" height="0.06"/><rect class="cls-90" x="156.3" y="543.04" width="10.09" height="0.06"/><rect class="cls-91" x="156.3" y="542.98" width="10.09" height="0.06"/><rect class="cls-92" x="156.3" y="542.92" width="10.09" height="0.06"/><rect class="cls-93" x="156.3" y="542.86" width="10.09" height="0.06"/><rect class="cls-94" x="156.3" y="542.8" width="10.09" height="0.06"/><rect class="cls-95" x="156.3" y="542.74" width="10.09" height="0.06"/><rect class="cls-96" x="156.3" y="542.68" width="10.09" height="0.06"/><rect class="cls-97" x="156.3" y="542.62" width="10.09" height="0.06"/><rect class="cls-98" x="156.3" y="542.56" width="10.09" height="0.06"/><rect class="cls-99" x="156.3" y="542.5" width="10.09" height="0.06"/><rect class="cls-100" x="156.3" y="542.44" width="10.09" height="0.06"/><rect class="cls-101" x="156.3" y="542.38" width="10.09" height="0.06"/><rect class="cls-102" x="156.3" y="542.32" width="10.09" height="0.06"/><rect class="cls-103" x="156.3" y="542.26" width="10.09" height="0.06"/><rect class="cls-104" x="156.3" y="542.2" width="10.09" height="0.06"/><rect class="cls-105" x="156.3" y="542.14" width="10.09" height="0.06"/><rect class="cls-106" x="156.3" y="542.08" width="10.09" height="0.06"/><rect class="cls-107" x="156.3" y="542.02" width="10.09" height="0.06"/><rect class="cls-108" x="156.3" y="541.96" width="10.09" height="0.06"/><rect class="cls-109" x="156.3" y="541.9" width="10.09" height="0.06"/><rect class="cls-110" x="156.3" y="541.84" width="10.09" height="0.06"/><rect class="cls-111" x="156.3" y="541.78" width="10.09" height="0.06"/><rect class="cls-112" x="156.3" y="541.72" width="10.09" height="0.06"/><rect class="cls-113" x="156.3" y="541.66" width="10.09" height="0.06"/><rect class="cls-114" x="156.3" y="541.6" width="10.09" height="0.06"/><rect class="cls-115" x="156.3" y="541.54" width="10.09" height="0.06"/><rect class="cls-116" x="156.3" y="541.48" width="10.09" height="0.06"/><rect class="cls-117" x="156.3" y="541.42" width="10.09" height="0.06"/><rect class="cls-118" x="156.3" y="541.36" width="10.09" height="0.06"/><rect class="cls-119" x="156.3" y="541.3" width="10.09" height="0.06"/><rect class="cls-120" x="156.3" y="541.24" width="10.09" height="0.06"/><rect class="cls-121" x="156.3" y="541.18" width="10.09" height="0.06"/><rect class="cls-122" x="156.3" y="541.12" width="10.09" height="0.06"/><rect class="cls-123" x="156.3" y="541.06" width="10.09" height="0.06"/><rect class="cls-124" x="156.3" y="541" width="10.09" height="0.06"/><rect class="cls-125" x="156.3" y="540.95" width="10.09" height="0.06"/><rect class="cls-126" x="156.3" y="540.89" width="10.09" height="0.06"/><rect class="cls-127" x="156.3" y="540.83" width="10.09" height="0.06"/><rect class="cls-128" x="156.3" y="540.77" width="10.09" height="0.06"/><rect class="cls-129" x="156.3" y="540.71" width="10.09" height="0.06"/><rect class="cls-130" x="156.3" y="540.65" width="10.09" height="0.06"/><rect class="cls-131" x="156.3" y="540.59" width="10.09" height="0.06"/><rect class="cls-132" x="156.3" y="540.53" width="10.09" height="0.06"/><rect class="cls-133" x="156.3" y="540.47" width="10.09" height="0.06"/><rect class="cls-134" x="156.3" y="540.41" width="10.09" height="0.06"/><rect class="cls-135" x="156.3" y="540.35" width="10.09" height="0.06"/><rect class="cls-136" x="156.3" y="540.29" width="10.09" height="0.06"/><rect class="cls-137" x="156.3" y="540.23" width="10.09" height="0.06"/><rect class="cls-138" x="156.3" y="540.17" width="10.09" height="0.06"/><rect class="cls-139" x="156.3" y="540.11" width="10.09" height="0.06"/><rect class="cls-140" x="156.3" y="540.05" width="10.09" height="0.06"/><rect class="cls-141" x="156.3" y="539.99" width="10.09" height="0.06"/><rect class="cls-142" x="156.3" y="539.93" width="10.09" height="0.06"/><rect class="cls-143" x="156.3" y="539.87" width="10.09" height="0.06"/><rect class="cls-144" x="156.3" y="539.81" width="10.09" height="0.06"/><rect class="cls-145" x="156.3" y="539.75" width="10.09" height="0.06"/><rect class="cls-146" x="156.3" y="539.69" width="10.09" height="0.06"/><rect class="cls-147" x="156.3" y="539.63" width="10.09" height="0.06"/><rect class="cls-148" x="156.3" y="539.57" width="10.09" height="0.06"/><rect class="cls-149" x="156.3" y="539.51" width="10.09" height="0.06"/><rect class="cls-150" x="156.3" y="539.45" width="10.09" height="0.06"/><rect class="cls-151" x="156.3" y="539.39" width="10.09" height="0.06"/><rect class="cls-152" x="156.3" y="539.33" width="10.09" height="0.06"/><rect class="cls-153" x="156.3" y="539.27" width="10.09" height="0.06"/><rect class="cls-154" x="156.3" y="539.21" width="10.09" height="0.06"/><rect class="cls-155" x="156.3" y="539.15" width="10.09" height="0.06"/><rect class="cls-156" x="156.3" y="539.09" width="10.09" height="0.06"/><rect class="cls-157" x="156.3" y="539.03" width="10.09" height="0.06"/><rect class="cls-158" x="156.3" y="538.97" width="10.09" height="0.06"/><rect class="cls-159" x="156.3" y="538.91" width="10.09" height="0.06"/><rect class="cls-160" x="156.3" y="538.85" width="10.09" height="0.06"/><rect class="cls-161" x="156.3" y="538.79" width="10.09" height="0.06"/><rect class="cls-162" x="156.3" y="538.73" width="10.09" height="0.06"/><rect class="cls-163" x="156.3" y="538.67" width="10.09" height="0.06"/><rect class="cls-164" x="156.3" y="538.61" width="10.09" height="0.06"/><rect class="cls-165" x="156.3" y="538.56" width="10.09" height="0.06"/><rect class="cls-166" x="156.3" y="538.5" width="10.09" height="0.06"/><rect class="cls-167" x="156.3" y="538.44" width="10.09" height="0.06"/><rect class="cls-168" x="156.3" y="538.38" width="10.09" height="0.06"/><rect class="cls-169" x="156.3" y="538.32" width="10.09" height="0.06"/><rect class="cls-170" x="156.3" y="538.26" width="10.09" height="0.06"/><rect class="cls-171" x="156.3" y="538.2" width="10.09" height="0.06"/><rect class="cls-172" x="156.3" y="538.14" width="10.09" height="0.06"/><rect class="cls-173" x="156.3" y="538.08" width="10.09" height="0.06"/><rect class="cls-174" x="156.3" y="538.02" width="10.09" height="0.06"/><rect class="cls-175" x="156.3" y="537.96" width="10.09" height="0.06"/><rect class="cls-176" x="156.3" y="537.9" width="10.09" height="0.06"/><rect class="cls-177" x="156.3" y="537.84" width="10.09" height="0.06"/><rect class="cls-178" x="156.3" y="537.78" width="10.09" height="0.06"/><rect class="cls-179" x="156.3" y="537.72" width="10.09" height="0.06"/><rect class="cls-180" x="156.3" y="537.66" width="10.09" height="0.06"/><rect class="cls-181" x="156.3" y="537.6" width="10.09" height="0.06"/><rect class="cls-182" x="156.3" y="537.54" width="10.09" height="0.06"/><rect class="cls-183" x="156.3" y="537.48" width="10.09" height="0.06"/><rect class="cls-184" x="156.3" y="537.42" width="10.09" height="0.06"/><rect class="cls-185" x="156.3" y="537.36" width="10.09" height="0.06"/><rect class="cls-186" x="156.3" y="537.3" width="10.09" height="0.06"/><rect class="cls-187" x="156.3" y="537.24" width="10.09" height="0.06"/><rect class="cls-187" x="156.3" y="537.19" width="10.09" height="0.05"/><rect class="cls-186" x="156.3" y="537.14" width="10.09" height="0.05"/><rect class="cls-185" x="156.3" y="537.09" width="10.09" height="0.05"/><rect class="cls-188" x="156.3" y="537.04" width="10.09" height="0.05"/><rect class="cls-183" x="156.3" y="536.99" width="10.09" height="0.05"/><rect class="cls-182" x="156.3" y="536.94" width="10.09" height="0.05"/><rect class="cls-181" x="156.3" y="536.9" width="10.09" height="0.05"/><rect class="cls-180" x="156.3" y="536.85" width="10.09" height="0.05"/><rect class="cls-179" x="156.3" y="536.8" width="10.09" height="0.05"/><rect class="cls-189" x="156.3" y="536.75" width="10.09" height="0.05"/><rect class="cls-190" x="156.3" y="536.7" width="10.09" height="0.05"/><rect class="cls-191" x="156.3" y="536.65" width="10.09" height="0.05"/><rect class="cls-192" x="156.3" y="536.6" width="10.09" height="0.05"/><rect class="cls-193" x="156.3" y="536.55" width="10.09" height="0.05"/><rect class="cls-194" x="156.3" y="536.5" width="10.09" height="0.05"/><rect class="cls-195" x="156.3" y="536.45" width="10.09" height="0.05"/><rect class="cls-196" x="156.3" y="536.4" width="10.09" height="0.05"/><rect class="cls-197" x="156.3" y="536.35" width="10.09" height="0.05"/><rect class="cls-198" x="156.3" y="536.3" width="10.09" height="0.05"/><rect class="cls-199" x="156.3" y="536.25" width="10.09" height="0.05"/><rect class="cls-200" x="156.3" y="536.2" width="10.09" height="0.05"/><rect class="cls-201" x="156.3" y="536.16" width="10.09" height="0.05"/><rect class="cls-202" x="156.3" y="536.11" width="10.09" height="0.05"/><rect class="cls-203" x="156.3" y="536.06" width="10.09" height="0.05"/><rect class="cls-204" x="156.3" y="536.01" width="10.09" height="0.05"/><rect class="cls-205" x="156.3" y="535.96" width="10.09" height="0.05"/><rect class="cls-206" x="156.3" y="535.91" width="10.09" height="0.05"/><rect class="cls-207" x="156.3" y="535.86" width="10.09" height="0.05"/><rect class="cls-208" x="156.3" y="535.81" width="10.09" height="0.05"/><rect class="cls-209" x="156.3" y="535.76" width="10.09" height="0.05"/><rect class="cls-210" x="156.3" y="535.71" width="10.09" height="0.05"/><rect class="cls-211" x="156.3" y="535.66" width="10.09" height="0.05"/><rect class="cls-212" x="156.3" y="535.61" width="10.09" height="0.05"/><rect class="cls-213" x="156.3" y="535.56" width="10.09" height="0.05"/><rect class="cls-214" x="156.3" y="535.51" width="10.09" height="0.05"/><rect class="cls-215" x="156.3" y="535.46" width="10.09" height="0.05"/><rect class="cls-216" x="156.3" y="535.42" width="10.09" height="0.05"/><rect class="cls-217" x="156.3" y="535.37" width="10.09" height="0.05"/><rect class="cls-218" x="156.3" y="535.32" width="10.09" height="0.05"/><rect class="cls-219" x="156.3" y="535.27" width="10.09" height="0.05"/><rect class="cls-220" x="156.3" y="535.22" width="10.09" height="0.05"/><rect class="cls-221" x="156.3" y="535.17" width="10.09" height="0.05"/><rect class="cls-222" x="156.3" y="535.12" width="10.09" height="0.05"/><rect class="cls-223" x="156.3" y="535.07" width="10.09" height="0.05"/><rect class="cls-224" x="156.3" y="535.02" width="10.09" height="0.05"/><rect class="cls-225" x="156.3" y="534.97" width="10.09" height="0.05"/><rect class="cls-226" x="156.3" y="534.92" width="10.09" height="0.05"/><rect class="cls-227" x="156.3" y="534.87" width="10.09" height="0.05"/><rect class="cls-228" x="156.3" y="534.82" width="10.09" height="0.05"/><rect class="cls-229" x="156.3" y="534.77" width="10.09" height="0.05"/><rect class="cls-230" x="156.3" y="534.72" width="10.09" height="0.05"/><rect class="cls-231" x="156.3" y="534.68" width="10.09" height="0.05"/><rect class="cls-232" x="156.3" y="534.63" width="10.09" height="0.05"/><rect class="cls-233" x="156.3" y="534.58" width="10.09" height="0.05"/><rect class="cls-234" x="156.3" y="534.53" width="10.09" height="0.05"/><rect class="cls-235" x="156.3" y="534.48" width="10.09" height="0.05"/><rect class="cls-236" x="156.3" y="534.43" width="10.09" height="0.05"/><rect class="cls-237" x="156.3" y="534.38" width="10.09" height="0.05"/><rect class="cls-238" x="156.3" y="534.33" width="10.09" height="0.05"/><rect class="cls-239" x="156.3" y="534.28" width="10.09" height="0.05"/><rect class="cls-240" x="156.3" y="534.23" width="10.09" height="0.05"/><rect class="cls-241" x="156.3" y="534.18" width="10.09" height="0.05"/><rect class="cls-242" x="156.3" y="534.13" width="10.09" height="0.05"/><rect class="cls-243" x="156.3" y="534.08" width="10.09" height="0.05"/><rect class="cls-244" x="156.3" y="534.03" width="10.09" height="0.05"/><rect class="cls-245" x="156.3" y="533.98" width="10.09" height="0.05"/><rect class="cls-246" x="156.3" y="533.93" width="10.09" height="0.05"/><rect class="cls-247" x="156.3" y="533.89" width="10.09" height="0.05"/><rect class="cls-248" x="156.3" y="533.84" width="10.09" height="0.05"/><rect class="cls-249" x="156.3" y="533.79" width="10.09" height="0.05"/><rect class="cls-250" x="156.3" y="533.74" width="10.09" height="0.05"/><rect class="cls-251" x="156.3" y="533.69" width="10.09" height="0.05"/><rect class="cls-252" x="156.3" y="533.64" width="10.09" height="0.05"/><rect class="cls-253" x="156.3" y="533.59" width="10.09" height="0.05"/><rect class="cls-254" x="156.3" y="533.54" width="10.09" height="0.05"/><rect class="cls-255" x="156.3" y="533.49" width="10.09" height="0.05"/><rect class="cls-256" x="156.3" y="533.44" width="10.09" height="0.05"/><rect class="cls-257" x="156.3" y="533.39" width="10.09" height="0.05"/><rect class="cls-258" x="156.3" y="533.34" width="10.09" height="0.05"/><rect class="cls-259" x="156.3" y="533.29" width="10.09" height="0.05"/><rect class="cls-260" x="156.3" y="533.24" width="10.09" height="0.05"/><rect class="cls-261" x="156.3" y="533.19" width="10.09" height="0.05"/><rect class="cls-262" x="156.3" y="533.15" width="10.09" height="0.05"/><rect class="cls-263" x="156.3" y="533.1" width="10.09" height="0.05"/><rect class="cls-264" x="156.3" y="533.05" width="10.09" height="0.05"/><rect class="cls-265" x="156.3" y="533" width="10.09" height="0.05"/><rect class="cls-266" x="156.3" y="532.95" width="10.09" height="0.05"/><rect class="cls-267" x="156.3" y="532.9" width="10.09" height="0.05"/><rect class="cls-268" x="156.3" y="532.85" width="10.09" height="0.05"/><rect class="cls-269" x="156.3" y="532.8" width="10.09" height="0.05"/><rect class="cls-270" x="156.3" y="532.75" width="10.09" height="0.05"/><rect class="cls-271" x="156.3" y="532.7" width="10.09" height="0.05"/><rect class="cls-272" x="156.3" y="532.65" width="10.09" height="0.05"/><rect class="cls-273" x="156.3" y="532.6" width="10.09" height="0.05"/><rect class="cls-274" x="156.3" y="532.55" width="10.09" height="0.05"/><rect class="cls-275" x="156.3" y="532.5" width="10.09" height="0.05"/><rect class="cls-276" x="156.3" y="532.45" width="10.09" height="0.05"/><rect class="cls-277" x="156.3" y="532.41" width="10.09" height="0.05"/><rect class="cls-278" x="156.3" y="532.36" width="10.09" height="0.05"/><rect class="cls-279" x="156.3" y="532.31" width="10.09" height="0.05"/><rect class="cls-280" x="156.3" y="532.26" width="10.09" height="0.05"/><rect class="cls-281" x="156.3" y="532.21" width="10.09" height="0.05"/><rect class="cls-282" x="156.3" y="532.16" width="10.09" height="0.05"/><rect class="cls-283" x="156.3" y="532.11" width="10.09" height="0.05"/><rect class="cls-284" x="156.3" y="532.06" width="10.09" height="0.05"/><rect class="cls-285" x="156.3" y="532.01" width="10.09" height="0.05"/><rect class="cls-286" x="156.3" y="531.96" width="10.09" height="0.05"/><rect class="cls-287" x="156.3" y="531.91" width="10.09" height="0.05"/><rect class="cls-288" x="156.3" y="531.86" width="10.09" height="0.05"/><rect class="cls-289" x="156.3" y="531.81" width="10.09" height="0.05"/><rect class="cls-290" x="156.3" y="531.76" width="10.09" height="0.05"/><rect class="cls-291" x="156.3" y="531.71" width="10.09" height="0.05"/><rect class="cls-292" x="156.3" y="531.67" width="10.09" height="0.05"/><rect class="cls-293" x="156.3" y="531.62" width="10.09" height="0.05"/><rect class="cls-294" x="156.3" y="531.57" width="10.09" height="0.05"/><rect class="cls-295" x="156.3" y="531.52" width="10.09" height="0.05"/><rect class="cls-296" x="156.3" y="531.47" width="10.09" height="0.05"/><rect class="cls-297" x="156.3" y="531.42" width="10.09" height="0.05"/><rect class="cls-298" x="156.3" y="531.37" width="10.09" height="0.05"/><rect class="cls-299" x="156.3" y="531.32" width="10.09" height="0.05"/><rect class="cls-300" x="156.3" y="531.27" width="10.09" height="0.05"/><rect class="cls-301" x="156.3" y="531.22" width="10.09" height="0.05"/><rect class="cls-302" x="156.3" y="531.17" width="10.09" height="0.05"/><rect class="cls-303" x="156.3" y="531.12" width="10.09" height="0.05"/><rect class="cls-304" x="156.3" y="531.07" width="10.09" height="0.05"/><rect class="cls-305" x="156.3" y="531.02" width="10.09" height="0.05"/><rect class="cls-306" x="156.3" y="530.97" width="10.09" height="0.05"/><rect class="cls-307" x="156.3" y="530.93" width="10.09" height="0.05"/><rect class="cls-308" x="156.3" y="530.88" width="10.09" height="0.05"/><rect class="cls-309" x="156.3" y="530.83" width="10.09" height="0.05"/><rect class="cls-310" x="156.3" y="530.78" width="10.09" height="0.05"/><rect class="cls-311" x="156.3" y="530.73" width="10.09" height="0.05"/><rect class="cls-312" x="156.3" y="530.68" width="10.09" height="0.05"/><rect class="cls-313" x="156.3" y="530.63" width="10.09" height="0.05"/><rect class="cls-314" x="156.3" y="530.58" width="10.09" height="0.05"/><rect class="cls-315" x="156.3" y="530.53" width="10.09" height="0.05"/><rect class="cls-316" x="156.3" y="530.48" width="10.09" height="0.05"/><rect class="cls-317" x="156.3" y="530.43" width="10.09" height="0.05"/><rect class="cls-318" x="156.3" y="530.38" width="10.09" height="0.05"/><rect class="cls-319" x="156.3" y="530.33" width="10.09" height="0.05"/><rect class="cls-320" x="156.3" y="530.28" width="10.09" height="0.05"/><rect class="cls-321" x="156.3" y="530.23" width="10.09" height="0.05"/><rect class="cls-322" x="156.3" y="530.19" width="10.09" height="0.05"/><rect class="cls-323" x="156.3" y="530.14" width="10.09" height="0.05"/><rect class="cls-324" x="156.3" y="530.09" width="10.09" height="0.05"/><rect class="cls-325" x="156.3" y="530.04" width="10.09" height="0.05"/><rect class="cls-326" x="156.3" y="529.99" width="10.09" height="0.05"/><rect class="cls-327" x="156.3" y="529.94" width="10.09" height="0.05"/><rect class="cls-328" x="156.3" y="529.89" width="10.09" height="0.05"/><rect class="cls-329" x="156.3" y="529.84" width="10.09" height="0.05"/><rect class="cls-330" x="156.3" y="529.79" width="10.09" height="0.05"/><rect class="cls-331" x="156.3" y="529.74" width="10.09" height="0.05"/><rect class="cls-332" x="156.3" y="529.69" width="10.09" height="0.05"/><rect class="cls-333" x="156.3" y="529.64" width="10.09" height="0.05"/><rect class="cls-334" x="156.3" y="529.59" width="10.09" height="0.05"/><rect class="cls-335" x="156.3" y="529.54" width="10.09" height="0.05"/><rect class="cls-336" x="156.3" y="529.49" width="10.09" height="0.05"/><rect class="cls-337" x="156.3" y="529.44" width="10.09" height="0.05"/><rect class="cls-338" x="156.3" y="529.4" width="10.09" height="0.05"/><rect class="cls-339" x="156.3" y="529.35" width="10.09" height="0.05"/><rect class="cls-340" x="156.3" y="529.3" width="10.09" height="0.05"/><rect class="cls-341" x="156.3" y="529.25" width="10.09" height="0.05"/><rect class="cls-342" x="156.3" y="529.2" width="10.09" height="0.05"/><rect class="cls-343" x="156.3" y="529.15" width="10.09" height="0.05"/><rect class="cls-344" x="156.3" y="529.1" width="10.09" height="0.05"/><rect class="cls-345" x="156.3" y="529.05" width="10.09" height="0.05"/><rect class="cls-346" x="156.3" y="529" width="10.09" height="0.05"/><rect class="cls-347" x="156.3" y="528.95" width="10.09" height="0.05"/><rect class="cls-348" x="156.3" y="528.9" width="10.09" height="0.05"/><rect class="cls-349" x="156.3" y="528.85" width="10.09" height="0.05"/><rect class="cls-350" x="156.3" y="528.8" width="10.09" height="0.05"/><rect class="cls-351" x="156.3" y="528.75" width="10.09" height="0.05"/><rect class="cls-352" x="156.3" y="528.7" width="10.09" height="0.05"/><rect class="cls-353" x="156.3" y="528.66" width="10.09" height="0.05"/><rect class="cls-354" x="156.3" y="528.61" width="10.09" height="0.05"/><rect class="cls-355" x="156.3" y="528.56" width="10.09" height="0.05"/><rect class="cls-356" x="156.3" y="528.51" width="10.09" height="0.05"/><rect class="cls-357" x="156.3" y="528.46" width="10.09" height="0.05"/><rect class="cls-358" x="156.3" y="528.41" width="10.09" height="0.05"/><rect class="cls-359" x="156.3" y="528.36" width="10.09" height="0.05"/><rect class="cls-360" x="156.3" y="528.31" width="10.09" height="0.05"/><rect class="cls-361" x="156.3" y="528.26" width="10.09" height="0.05"/><rect class="cls-362" x="156.3" y="528.21" width="10.09" height="0.05"/><rect class="cls-363" x="156.3" y="528.16" width="10.09" height="0.05"/><rect class="cls-364" x="156.3" y="528.11" width="10.09" height="0.05"/><rect class="cls-365" x="156.3" y="528.06" width="10.09" height="0.05"/><rect class="cls-366" x="156.3" y="528.01" width="10.09" height="0.05"/><rect class="cls-367" x="156.3" y="527.96" width="10.09" height="0.05"/><rect class="cls-368" x="156.3" y="527.92" width="10.09" height="0.05"/><rect class="cls-369" x="156.3" y="527.87" width="10.09" height="0.05"/><rect class="cls-370" x="156.3" y="527.82" width="10.09" height="0.05"/><rect class="cls-371" x="156.3" y="527.77" width="10.09" height="0.05"/><rect class="cls-372" x="156.3" y="527.72" width="10.09" height="0.05"/><rect class="cls-373" x="156.3" y="527.67" width="10.09" height="0.05"/><rect class="cls-374" x="156.3" y="527.62" width="10.09" height="0.05"/><rect class="cls-375" x="156.3" y="527.57" width="10.09" height="0.05"/><rect class="cls-376" x="156.3" y="527.52" width="10.09" height="0.05"/><rect class="cls-377" x="156.3" y="527.47" width="10.09" height="0.05"/><rect class="cls-377" x="156.3" y="526.82" width="10.09" height="0.65"/></g><path class="cls-378" d="M161.35,548.67c-3.4,0-6-4.88-6-11.35S158,526,161.35,526s6,4.88,6,11.35S164.75,548.67,161.35,548.67Zm0-21c-1.95,0-4.13,4-4.13,9.64s2.18,9.64,4.13,9.64,4.13-4,4.13-9.64S163.3,527.68,161.35,527.68Z"/><path class="cls-379" d="M182.3,516l0-.44-1.85.07a1.07,1.07,0,0,1-1.11-.75l-1.17.42a1.22,1.22,0,0,1-1.2-.25.8.8,0,0,1-.24-.39,1.15,1.15,0,0,1-1.71-.42l-.18-.45-1.26.27L171.83,507a.9.9,0,0,1,.68-1.06,1.16,1.16,0,0,1,1.35.6l2.27,5.7,3.85-6.57a1.1,1.1,0,0,1,1.4-.38.91.91,0,0,1,.53,1.18l-2.81,6.7,12.2-4.35a1.16,1.16,0,0,1,1.41.55.88.88,0,0,1-.5,1.16l-7.72,3.28,12.4-.45L197,515Zm-5.59-2.36h0ZM192,510.37Z"/><path class="cls-379" d="M143.82,515l-14.69-1,.1-1.71,12.4.45-7.72-3.29a.87.87,0,0,1-.5-1.16,1.14,1.14,0,0,1,1.41-.54l12.2,4.35-2.81-6.71a.9.9,0,0,1,.53-1.17,1.1,1.1,0,0,1,1.4.37l3.85,6.57,2.27-5.69a1.15,1.15,0,0,1,1.35-.6.89.89,0,0,1,.68,1.05l-1.72,7.11-1.26-.26-.18.45a1.1,1.1,0,0,1-1,.63,1.13,1.13,0,0,1-.75-.21.85.85,0,0,1-.24.39,1.2,1.2,0,0,1-1.2.24l-1.17-.41a1.06,1.06,0,0,1-1.11.74l-1.85-.07Zm5.59-2.35Z"/><ellipse class="cls-380" cx="178.32" cy="519.97" rx="5.05" ry="7.28"/><path class="cls-381" d="M178.32,528.11c-3.34,0-6-3.58-6-8.14s2.62-8.14,6-8.14,6,3.57,6,8.14S181.66,528.11,178.32,528.11Zm0-14.57c-2.24,0-4.13,3-4.13,6.43s1.89,6.43,4.13,6.43,4.13-2.95,4.13-6.43S180.56,513.54,178.32,513.54Z"/><ellipse class="cls-380" cx="148.05" cy="519.33" rx="5.05" ry="6.21"/><path class="cls-381" d="M148.05,526.4c-3.29,0-6-3.18-6-7.07s2.68-7.07,6-7.07,6,3.17,6,7.07S151.34,526.4,148.05,526.4Zm0-12.43c-2.28,0-4.13,2.4-4.13,5.36s1.85,5.35,4.13,5.35,4.13-2.4,4.13-5.35S150.32,514,148.05,514Z"/><rect class="cls-9" x="149.88" y="552.32" width="25.91" height="27.42" rx="12.96"/><polygon class="cls-382" points="199.58 479.4 201.44 505.12 157.49 489.08 106.77 496.55 122.98 472.46 89.77 451.36 143.74 452.52 173.94 432 191.08 456.8 242.95 465.23 199.58 479.4"/><path class="cls-382" d="M202.05,472.42l-3.38-4.11L230,449.17l-52.29,2.39-30.18-17L132,456.49,82,465.12l42.68,11.16-5.53,33.41,46.77-26.11,49.52,5.17-7.86-9.58A19.77,19.77,0,0,1,202.05,472.42Z"/><path class="cls-383" d="M201,492.76c-.91-3.85.37-3.31-.91-5.57l-5.44-3c-17.14-8.64-50-4.64-71.32,7.88a1.24,1.24,0,0,1,0,.27c-.41,2.44-2.26,5.93-2.55,8.42a.06.06,0,0,0,.1,0c19.75-14.9,51.41-18.78,78.86-7.11.74.31,1.29,1.62,1.29,1.62l.23-2.64C200.5,492,201.22,493.59,201,492.76Z"/><ellipse class="cls-384" cx="125.87" cy="490.03" rx="9.01" ry="3.62"/><path class="cls-385" d="M125.87,493.86c-5.18,0-9.24-1.68-9.24-3.83s4.06-3.83,9.24-3.83,9.24,1.68,9.24,3.83S131.05,493.86,125.87,493.86Zm0-7.24c-4.76,0-8.78,1.56-8.78,3.41s4,3.4,8.78,3.4,8.78-1.56,8.78-3.4S130.63,486.62,125.87,486.62Z"/><ellipse class="cls-384" cx="128.24" cy="483.96" rx="3.66" ry="8.9" transform="translate(-296.62 219.09) rotate(-43.22)"/><ellipse class="cls-384" cx="138.43" cy="488.06" rx="8.99" ry="3.62" transform="translate(-129.38 57.2) rotate(-16.03)"/><ellipse class="cls-384" cx="138.27" cy="495.2" rx="3.66" ry="7.74" transform="translate(-314.08 250.83) rotate(-46.02)"/><ellipse class="cls-384" cx="127.43" cy="496.69" rx="8.95" ry="3.64" transform="translate(-243.85 143.01) rotate(-32)"/><ellipse class="cls-384" cx="134.66" cy="485.86" rx="8.83" ry="3.69" transform="translate(-368.91 461.12) rotate(-71.7)"/><ellipse class="cls-386" cx="132.74" cy="489.78" rx="3.66" ry="2.3"/><path class="cls-380" d="M132.74,492.94c-2.57,0-4.58-1.39-4.58-3.16s2-3.15,4.58-3.15,4.57,1.38,4.57,3.15S135.3,492.94,132.74,492.94Zm0-4.6c-1.62,0-2.74.76-2.74,1.44s1.12,1.44,2.74,1.44,2.73-.75,2.73-1.44S134.35,488.34,132.74,488.34Z"/><path class="cls-9" d="M91.65,631.89l-6-2.12a5.07,5.07,0,0,1-3.2-6.63l14.44-35.63a5.64,5.64,0,0,1,7.09-3l6,2.13a5.06,5.06,0,0,1,3.2,6.62L98.75,628.9A5.66,5.66,0,0,1,91.65,631.89Z"/><path class="cls-9" d="M214.71,596.58l5.69-2.79a5.72,5.72,0,0,1,7.43,2.16l18,32a5,5,0,0,1-2.31,6.94l-5.68,2.79a5.71,5.71,0,0,1-7.43-2.15l-18-32A5,5,0,0,1,214.71,596.58Z"/><path class="cls-9" d="M237.79,666l6.9,2.65c2.44.79,2.3,3.86,1.39,6.35l-1.81,4.89c-.92,2.49-3.11,2.79-3.89.43l-.9,1.86a1.72,1.72,0,0,1-2.27.53L236,681c.18.62-1.6,3.74-3.62,1.08-.27-.35-.81-1.29-1.05-.85-.58,1.06-1.56,3.7-3.55-.74-1.74-3.89-5.13,3-5.86-.66l7.36-13.18C227.59,664.43,235.35,665.21,237.79,666Z"/><rect class="cls-9" x="229.57" y="627.22" width="17.43" height="46.4" rx="8.71" transform="translate(476.57 1300.85) rotate(-180)"/><path class="cls-9" d="M137,757.25,130.67,756a5.16,5.16,0,0,1-4.26-6.08l8.32-37.29a5.52,5.52,0,0,1,6.51-4l6.29,1.22a5.17,5.17,0,0,1,4.26,6.08l-8.32,37.29A5.54,5.54,0,0,1,137,757.25Z"/><path class="cls-9" d="M200.6,754.8l-6.14,1.74a5.6,5.6,0,0,1-6.87-3.42l-11.84-36.45a5.13,5.13,0,0,1,3.67-6.42l6.15-1.74a5.59,5.59,0,0,1,6.86,3.43l11.84,36.45A5.1,5.1,0,0,1,200.6,754.8Z"/><path class="cls-387" d="M124.43,761l-19.27,3c-2,0-5-2.44-5-4.28l-.92-3.86c-1.36-8.25,11.92-.64,14.69-.64L126.26,752c2.78,0,17.65,1.93,17,2.57l-.46,7.72C142.37,764.85,124,763.53,124.43,761Z"/><path class="cls-388" d="M113.89,755.18,126.26,752c-2.77,0,17.65,1.93,17,2.57"/><path class="cls-387" d="M205.07,759.16,223.58,765c1.95.29,5.39-1.66,5.71-3.48l1.56-3.67c2.74-8-11.66-2.4-14.4-2.81l-11.67-5c-2.74-.41-17.75-.71-17.19,0l-.86,7.68C186.68,760.34,205.08,761.76,205.07,759.16Z"/><path class="cls-380" d="M215.93,721.76H105.39a5.34,5.34,0,0,1-5.5-5.14l13.3-144.38c0-2.83,42.2-16.71,35.32.85l27.06.43c-7.8-15.42,24.77-8.57,30.73-5.14l15.13,148.24A5.34,5.34,0,0,1,215.93,721.76Z"/><path class="cls-389" d="M114.55,612.43c9.88-20.73,11.67-40.12,4-43.31s-21.9,11-31.78,31.75"/><path class="cls-389" d="M235.44,593.4c-12.49-18.43-28.32-30-35.36-25.83s-2.63,22.48,9.86,40.91"/><path class="cls-390" d="M185.7,662.77c-11.53,16.52-15.73,33-9.39,36.9s20.83-6.39,32.36-22.91"/><path class="cls-390" d="M111.24,676.27c11.51,17.32,26.34,28.16,33.11,24.24s2.92-21.15-8.59-38.46"/><ellipse class="cls-384" cx="154.8" cy="612.82" rx="9" ry="13.83" transform="translate(-122.17 44.66) rotate(-11.81)"/><path class="cls-385" d="M145.39,614.39c-1.49-7.81,1.47-14.62,6.75-15.5s10.58,4.55,12.07,12.36-1.47,14.61-6.75,15.49S146.88,622.2,145.39,614.39Zm17.77-3c-1.37-7.17-6.36-12.59-10.89-11.84s-7.2,7.46-5.83,14.63,6.36,12.6,10.89,11.84S164.53,618.6,163.16,611.42Z"/><ellipse class="cls-391" cx="170.38" cy="613.91" rx="18.83" ry="6.61" transform="translate(-325.79 214.25) rotate(-35.64)"/><ellipse class="cls-391" cx="161.87" cy="633.94" rx="8.33" ry="14.94" transform="translate(-343.39 218.25) rotate(-36.23)"/><ellipse class="cls-391" cx="145.67" cy="633.63" rx="16.17" ry="6.69" transform="matrix(0.81, -0.59, 0.59, 0.81, -345.15, 207.25)"/><ellipse class="cls-391" cx="138.89" cy="617.9" rx="7.23" ry="17.21" transform="translate(-470.58 445.75) rotate(-61.56)"/><ellipse class="cls-391" cx="173.99" cy="625.65" rx="5.8" ry="21.47" transform="translate(-453.8 791.74) rotate(-89.28)"/><ellipse class="cls-392" cx="157.37" cy="623.07" rx="5.58" ry="5.75" transform="translate(-485.2 614.5) rotate(-75.06)"/><path class="cls-393" d="M149.62,624.36c-.73-3.87,2.09-7.46,6.44-8.19s8.32,1.74,9.06,5.6-2.08,7.47-6.43,8.19S150.36,628.22,149.62,624.36Zm11.29-1.88a4.13,4.13,0,0,0-4.33-3.54,3.92,3.92,0,0,0-2.75,4.72,4.15,4.15,0,0,0,4.33,3.53A3.89,3.89,0,0,0,160.91,622.48Z"/><path class="cls-9" d="M124.56,601.61l3.83,4.81a4.93,4.93,0,0,1-1.13,7.19l-31,21.57a5.79,5.79,0,0,1-7.7-1.06l-3.84-4.81a4.94,4.94,0,0,1,1.13-7.19l31-21.57A5.79,5.79,0,0,1,124.56,601.61Z"/><path class="cls-9" d="M123,607l5.53,2.87c1.83,1.12,4.36-1.12,6-3.48l3.27-4.66c1.66-2.37.88-4.08-1.49-3l1.13-1.91c.48-1.24-.08-1.58-.63-1.92l-2,.34c.61-.31,2.39-3.7-.82-3.23-.43.07-1.48.34-1.22-.13.62-1.14,2.38-3.65-2.32-1.91-4.12,1.52.07-5.6-3.36-3.55L119.5,600.7C116.82,601.12,121.19,605.88,123,607Z"/></g></svg>
